<?xml version="1.0" encoding="utf-8"?>
<!-- Generator: Adobe Illustrator 16.0.0, SVG Export Plug-In . SVG Version: 6.00 Build 0)  -->
<!DOCTYPE svg PUBLIC "-//W3C//DTD SVG 1.1//EN" "http://www.w3.org/Graphics/SVG/1.1/DTD/svg11.dtd">
<svg version="1.1" id="Layer_1" xmlns="http://www.w3.org/2000/svg" xmlns:xlink="http://www.w3.org/1999/xlink" x="0px" y="0px"
	 width="575.375px" height="150.545px" viewBox="0 0 575.375 150.545" enable-background="new 0 0 575.375 150.545"
	 xml:space="preserve">
<g>
	<g id="Group_14" transform="translate(-243.329 -32)">
		<path id="Path_9" fill="#FFFFFF" d="M411.932,99.156l-33.071,57.418h-56.606l-4.666,8.318h66.142l33.274-57.417L411.932,99.156z"
			/>
		<path id="Path_10" fill="#FFFFFF" d="M378.252,174.226h-66.143l-28.404-49.099h-9.536l33.071,57.418h66.345L378.252,174.226z"/>
		<path id="Path_11" fill="#FFFFFF" d="M296.284,182.342l-33.274-57.418l28.405-49.1l-4.667-8.116l-33.071,57.215l33.071,57.418
			H296.284z"/>
		<path id="Path_12" fill="#FFFFFF" d="M248.199,115.388l33.071-57.215h56.809l4.667-8.116h-66.143l-33.274,57.418L248.199,115.388z
			"/>
		<path id="Path_13" fill="#FFFFFF" d="M282.082,40.318h66.142l28.405,49.1h9.535L353.094,32h-66.346L282.082,40.318z"/>
		<path id="Path_14" fill="#FFFFFF" d="M364.049,32.203l33.071,57.418l-28.404,49.302l4.666,8.318l33.274-57.62l-33.071-57.418
			H364.049z"/>
	</g>
	<g id="Group_13" transform="translate(-74.64 -108.63)">
		<path id="Path_1" fill="#FFFFFF" d="M336.347,188.711l7.71,6.086v13.188c0,1.015-0.406,1.826-0.812,2.638
			c-0.609,0.812-1.421,1.623-2.436,2.231c-1.014,0.608-2.231,1.218-3.246,1.42c-1.217,0.406-2.435,0.609-3.854,0.609
			c-3.044,0-5.884-0.609-8.521-2.029c-2.435-1.42-4.667-3.246-6.087-5.681c-1.826-2.841-3.043-5.884-3.854-8.928
			c-0.812-3.854-1.218-7.912-1.218-11.97c0-3.855,0.406-7.507,1.015-11.362c0.608-3.246,1.623-6.29,3.246-9.333
			c1.42-2.435,3.246-4.666,5.681-6.29c2.435-1.623,5.479-2.435,8.521-2.232c0.812,0,1.826,0,2.638,0.203
			c1.015,0.203,1.826,0.406,2.841,0.608l0.405,0.203c1.421,0.608,2.841,1.42,4.058,2.231c1.218,0.812,2.232,1.826,3.247,3.044
			c0.812,1.015,1.825,2.231,2.435,3.246c0.608,1.015,1.217,2.231,1.826,3.246c0.405,1.015,0.812,2.029,1.217,3.043
			c0.406,1.015,0.608,1.624,0.812,2.232h0.812l-1.217-16.434c-2.638-1.015-5.479-1.826-8.319-2.638
			c-2.637-0.609-5.274-1.015-8.115-1.217c-0.812,0-1.623-0.203-2.435-0.203c-4.464,0-8.927,0.812-13.188,2.435
			c-3.652,1.42-7.102,3.652-9.942,6.492c-2.637,2.841-4.869,6.29-6.086,9.942c-1.421,4.058-2.232,8.115-2.232,12.376
			s0.609,8.521,2.232,12.376c2.637,7.305,8.521,13.188,15.825,16.028c4.058,1.624,8.318,2.232,12.782,2.232
			c2.638,0,5.072-0.203,7.71-0.812c2.231-0.406,4.261-1.015,6.289-1.826c1.826-0.608,3.449-1.42,5.072-2.231
			c1.42-0.812,2.638-1.624,3.652-2.232V187.9h-18.666L336.347,188.711z"/>
		<path id="Path_2" fill="#FFFFFF" d="M375.301,191.754H403.3c0-2.435-0.405-5.072-1.217-7.507
			c-0.812-2.231-2.029-4.261-3.652-6.087s-3.449-3.246-5.681-4.058c-2.436-1.015-5.072-1.623-7.71-1.42
			c-2.841,0-5.682,0.608-8.318,1.623c-2.436,1.015-4.87,2.638-6.695,4.666c-1.826,2.029-3.449,4.464-4.261,7.305
			c-1.015,3.043-1.623,6.086-1.623,9.333c0,2.84,0.405,5.884,1.42,8.521c0.812,2.436,2.231,4.667,4.058,6.696
			c1.826,1.825,3.854,3.448,6.29,4.26c2.637,1.015,5.274,1.624,8.115,1.624c3.854,0.202,7.71-0.812,10.956-2.638
			c3.043-1.826,5.478-4.261,7.304-7.102l-0.608-0.608c-0.812,0.608-1.42,1.217-2.231,1.826c-1.015,0.608-1.826,1.014-2.841,1.42
			c-1.015,0.405-2.231,0.812-3.449,1.015c-1.217,0.203-2.435,0.405-3.652,0.405c-2.028,0-4.058-0.405-5.884-1.217
			c-1.623-0.812-3.246-2.029-4.261-3.449c-1.217-1.623-2.231-3.449-2.84-5.479c-0.608-2.435-1.015-4.869-1.015-7.304v-1.015
			C375.099,192.362,375.301,192.16,375.301,191.754z M376.113,184.044c0.406-1.826,1.015-3.449,1.826-5.072
			c0.608-1.217,1.623-2.435,2.841-3.246c3.043-2.029,7.101-1.218,9.13,1.623c0.203,0.203,0.405,0.608,0.405,0.812
			c1.624,3.652,2.232,7.71,2.029,11.564l-17.043,0.812C375.301,188.508,375.504,186.276,376.113,184.044L376.113,184.044z"/>
		<path id="Path_3" fill="#FFFFFF" d="M476.746,185.262c0-2.029-0.203-3.855-1.015-5.682c-0.608-1.42-1.623-2.84-2.84-3.854
			c-1.218-1.015-2.435-1.826-4.058-2.231c-1.421-0.406-3.044-0.812-4.667-0.812s-3.043,0.202-4.666,0.608
			c-1.421,0.405-2.841,1.015-4.059,1.623c-1.217,0.608-2.435,1.42-3.449,2.435c-1.014,0.812-2.028,1.826-2.84,2.841
			c-0.406-1.218-1.218-2.435-2.232-3.652c-0.812-0.812-1.825-1.623-2.84-2.231c-1.015-0.609-2.029-1.015-3.246-1.218
			c-2.435-0.608-5.072-0.405-7.71,0.203c-1.42,0.405-2.638,0.812-3.855,1.42c-1.217,0.608-2.231,1.218-3.448,2.232
			c-1.015,0.812-1.826,1.623-2.841,2.637v-0.608v-5.681l-0.406-0.406l-15.419,3.449v0.812l5.274,3.246v30.434l-5.681,4.261v0.609
			h22.115v-0.609l-5.479-4.261v-29.419c1.015-1.217,2.436-2.231,3.855-2.84c1.42-0.609,3.043-1.015,4.666-1.015
			c1.015,0,2.232,0.203,3.246,0.608c0.812,0.406,1.623,0.812,2.232,1.623c0.608,0.812,1.015,1.623,1.217,2.435
			c0.203,1.015,0.406,2.232,0.406,3.247v25.36l-5.479,4.261v0.609h21.912v-0.609l-5.478-4.261V185.87c0-0.608,0-1.218,0-2.029
			s-0.203-1.42-0.203-2.028c1.015-1.218,2.435-2.232,3.855-3.044c1.42-0.812,3.246-1.217,4.869-1.217
			c1.015,0,2.231,0.203,3.246,0.608c0.812,0.406,1.623,0.812,2.231,1.623c0.609,0.812,1.015,1.623,1.218,2.435
			c0.203,1.015,0.405,2.232,0.405,3.247v25.36l-5.478,4.261v0.609h22.115v-0.609l-5.682-4.261L476.746,185.262z"/>
		<path id="Path_4" fill="#FFFFFF" d="M522.6,213.666h-16.84v-51.534l7.101-5.681v-0.812h-24.752v0.812l6.086,5.478v47.477
			l-6.086,5.479v0.812h43.824l2.231-15.826h-0.405L522.6,213.666z"/>
		<path id="Path_5" fill="#FFFFFF" d="M555.062,173.088l-0.405-0.405l-15.42,3.449v0.812l5.072,3.246v30.636l-5.681,4.261v0.609
			h22.317v-0.609l-5.681-4.261L555.062,173.088z"/>
		<path id="Path_6" fill="#FFFFFF" d="M544.715,164.161c0.608,0.608,1.217,1.015,2.028,1.217c0.812,0.203,1.623,0.406,2.435,0.406
			s1.623-0.203,2.436-0.406c0.812-0.202,1.42-0.608,2.028-1.217c0.608-0.609,1.015-1.218,1.218-1.826
			c0.405-0.812,0.405-1.623,0.405-2.435s-0.203-1.624-0.405-2.232c-0.203-0.812-0.812-1.42-1.218-1.826
			c-0.608-0.608-1.217-1.014-2.028-1.217c-0.813-0.203-1.624-0.406-2.436-0.406s-1.623,0.203-2.435,0.406
			c-1.42,0.609-2.638,1.623-3.246,3.043c-0.203,0.812-0.405,1.623-0.405,2.232c0,0.812,0.202,1.623,0.405,2.435
			S544.106,163.755,544.715,164.161z"/>
		<path id="Path_7" fill="#FFFFFF" d="M580.423,166.393c-0.608-1.826-1.014-3.652-1.014-5.478c0-1.42,0.202-3.044,0.812-4.261
			c0.405-1.217,1.217-2.232,2.231-2.84c1.015-0.812,2.231-1.015,3.246-1.015c0.203,0,0.608,0,1.015,0.203s0.608,0.203,0.608,0.203
			c0.608,0.812,1.218,1.826,1.623,2.637c0.406,0.812,1.015,1.826,1.623,2.638s1.218,1.826,1.826,2.84s1.218,1.826,1.826,3.044h0.812
			l1.623-10.551c-1.42-0.608-2.841-1.217-4.464-1.623c-2.028-0.609-4.261-0.812-6.492-0.812c-1.623,0-3.246,0.203-4.869,0.608
			s-3.044,0.812-4.261,1.624c-1.218,0.608-2.435,1.623-3.652,2.637c-1.015,1.015-1.826,2.232-2.435,3.652
			c-0.608,1.42-0.812,3.043-0.812,4.666c0,1.826,0.405,3.855,1.015,5.682l1.42,4.463h-6.492v1.421h6.492v34.693l-5.681,4.261v0.812
			h22.724v-0.812l-6.29-4.261V175.32h9.739V173.9h-9.739L580.423,166.393z"/>
		<path id="Path_8" fill="#FFFFFF" d="M629.523,208.189c-1.015,0.608-2.028,1.014-3.043,1.42c-1.015,0.405-2.231,0.812-3.449,1.015
			c-1.218,0.202-2.435,0.405-3.652,0.405c-2.028,0-4.058-0.405-5.884-1.217c-1.623-0.812-3.246-2.029-4.261-3.449
			c-1.217-1.623-2.231-3.449-2.84-5.479c-0.609-2.435-1.015-4.869-1.015-7.304v-1.015c0-0.203,0-0.405,0-0.812h27.999
			c0-2.435-0.406-5.072-1.218-7.507c-0.812-2.231-2.029-4.261-3.652-6.087s-3.651-3.246-5.681-4.058
			c-2.435-1.015-5.072-1.623-7.71-1.42c-2.84,0-5.681,0.608-8.318,1.623c-2.435,1.015-4.869,2.638-6.695,4.666
			c-1.826,2.029-3.449,4.464-4.261,7.305c-1.015,3.043-1.623,6.086-1.623,9.333c0,2.84,0.406,5.884,1.421,8.521
			c0.811,2.436,2.231,4.667,4.058,6.696c1.825,1.825,3.854,3.448,6.289,4.26c2.638,1.015,5.275,1.624,8.116,1.624
			c3.854,0.202,7.709-0.812,10.956-2.638c3.043-1.826,5.478-4.261,7.304-7.102l-0.608-0.608
			C631.146,206.971,630.334,207.579,629.523,208.189z M606.191,184.044c0.405-1.826,1.015-3.449,1.826-5.072
			c0.608-1.217,1.623-2.435,2.84-3.246c3.044-2.029,7.102-1.218,9.13,1.623c0.203,0.203,0.406,0.608,0.406,0.812
			c1.623,3.652,2.231,7.71,2.029,11.564l-17.043,0.812C605.379,188.508,605.785,186.276,606.191,184.044L606.191,184.044z"/>
		<path id="Path_15" fill="#FFFFFF" d="M631.957,156.046v1.217h3.044v8.115h1.42v-8.115h3.044v-1.217H631.957z M649.407,155.842
			l-4.059,5.275l-4.058-5.275h-0.405v9.536h1.42v-6.29l3.246,3.855l3.044-3.855v6.29h1.42v-9.536H649.407z"/>
	</g>
</g>
</svg>
